<svg viewBox="0 0 64 64" xmlns="http://www.w3.org/2000/svg">
  <defs><radialGradient id="glow_efsanevi" cx="50%" cy="48%" r="50%"><stop offset="0%" stop-color="#FBA316" stop-opacity="0.42"></stop><stop offset="100%" stop-color="#FBA316" stop-opacity="0"></stop></radialGradient></defs>
  <circle cx="32" cy="32" r="29" fill="url(#glow_efsanevi)"></circle>
  <polygon points="45.77,32 38.89,43.93 25.12,43.93 18.23,32 25.11,20.07 38.89,20.07" fill="#FFF0C2"></polygon>
  <polygon points="57.5,32 44.75,54.08 38.89,43.93 45.77,32" fill="#8F4D06"></polygon>
  <polygon points="44.75,54.08 19.25,54.08 25.12,43.93 38.89,43.93" fill="#8F4D06"></polygon>
  <polygon points="19.25,54.08 6.5,32 18.23,32 25.12,43.93" fill="#E07C0A"></polygon>
  <polygon points="6.5,32 19.25,9.92 25.11,20.07 18.23,32" fill="#FCD34D"></polygon>
  <polygon points="19.25,9.92 44.75,9.92 38.89,20.07 25.11,20.07" fill="#FCD34D"></polygon>
  <polygon points="44.75,9.92 57.5,32 45.77,32 38.89,20.07" fill="#FBA316"></polygon>
  <path d="M57.5,32 L44.75,54.08 L19.25,54.08 L6.5,32 L19.25,9.92 L44.75,9.92 Z" fill="none" stroke="#8F4D06" stroke-width="1" stroke-linejoin="round" opacity=".7"></path>
  <path d="M57.5,32 L44.75,54.08 L19.25,54.08 L6.5,32 L19.25,9.92 L44.75,9.92 Z" fill="none" stroke="#FFF0C2" stroke-width=".6" stroke-linejoin="round" opacity=".35"></path>
  <polygon points="18.23,32 25.11,20.07 38.89,20.07" fill="#FFF0C2" opacity="0.4"></polygon>
  <path d="M50,10.4 C51.196,13.804 51.196,13.804 54.6,15 C51.196,16.196 51.196,16.196 50,19.6 C48.804,16.196 48.804,16.196 45.4,15 C48.804,13.804 48.804,13.804 50,10.4 Z" fill="#FFF6DB" opacity="0.95"></path>
  <path d="M14,41 C14.78,43.22 14.78,43.22 17,44 C14.78,44.78 14.78,44.78 14,47 C13.22,44.78 13.22,44.78 11,44 C13.22,43.22 13.22,43.22 14,41 Z" fill="#FFF6DB" opacity="0.7"></path>
  <path d="M46,43.6 C46.624,45.376 46.624,45.376 48.4,46 C46.624,46.624 46.624,46.624 46,48.4 C45.376,46.624 45.376,46.624 43.6,46 C45.376,45.376 45.376,45.376 46,43.6 Z" fill="#FFF6DB" opacity="0.6"></path>
</svg>