<svg viewBox="0 0 64 64" xmlns="http://www.w3.org/2000/svg">
  <defs><radialGradient id="glow_destansi" cx="50%" cy="48%" r="50%"><stop offset="0%" stop-color="#A855F7" stop-opacity="0.34"></stop><stop offset="100%" stop-color="#A855F7" stop-opacity="0"></stop></radialGradient></defs>
  <circle cx="32" cy="32" r="26" fill="url(#glow_destansi)"></circle>
  <polygon points="32,19 44.36,27.98 39.64,42.52 24.36,42.52 19.64,27.98" fill="#ECD6FF"></polygon>
  <polygon points="32,7 55.78,24.27 44.36,27.98 32,19" fill="#C18BFF"></polygon>
  <polygon points="55.78,24.27 46.69,52.23 39.64,42.52 44.36,27.98" fill="#4A1581"></polygon>
  <polygon points="46.69,52.23 17.31,52.23 24.36,42.52 39.64,42.52" fill="#4A1581"></polygon>
  <polygon points="17.31,52.23 8.22,24.27 19.64,27.98 24.36,42.52" fill="#A855F7"></polygon>
  <polygon points="8.22,24.27 32,7 32,19 19.64,27.98" fill="#C18BFF"></polygon>
  <path d="M32,7 L55.78,24.27 L46.69,52.23 L17.31,52.23 L8.22,24.27 Z" fill="none" stroke="#4A1581" stroke-width="1" stroke-linejoin="round" opacity=".7"></path>
  <path d="M32,7 L55.78,24.27 L46.69,52.23 L17.31,52.23 L8.22,24.27 Z" fill="none" stroke="#ECD6FF" stroke-width=".6" stroke-linejoin="round" opacity=".35"></path>
  <polygon points="19.64,27.98 32,19 44.36,27.98" fill="#ECD6FF" opacity="0.4"></polygon>
</svg>